<svg xmlns="http://www.w3.org/2000/svg" width="18" height="18" viewBox="0 0 18 18" fill="none">
    <path d="M11.4899 12.733L13.0399 11.4152C13.2485 11.2401 13.5034 11.1294 13.7736 11.0964C14.0439 11.0634 14.3178 11.1096 14.5623 11.2295L16.2525 12.0692C16.4993 12.1935 16.7037 12.3882 16.8401 12.6286C16.9764 12.8691 17.0386 13.1446 17.0187 13.4203L16.7584 16.6216C16.7416 16.809 16.6872 16.991 16.5983 17.1567C16.5094 17.3225 16.3879 17.4685 16.2412 17.5861C16.0944 17.7036 15.9254 17.7902 15.7443 17.8407C15.5632 17.8912 15.3738 17.9045 15.1874 17.8798C3.00785 16.1241 1.38117 5.5513 1.23681 1.54375C1.23098 1.34705 1.26684 1.15134 1.34203 0.969487C1.41722 0.787633 1.53003 0.62376 1.67306 0.488649C1.81608 0.353538 1.98607 0.250251 2.17185 0.185582C2.35762 0.120913 2.55496 0.0963293 2.75089 0.113447L5.84167 0.364359C6.11742 0.387567 6.37989 0.492782 6.59535 0.666473C6.81081 0.840163 6.96939 1.07439 7.0507 1.33901L7.60608 3.14356C7.68816 3.40355 7.69186 3.68199 7.6167 3.94411C7.54154 4.20622 7.39087 4.44039 7.18349 4.61735L5.63347 5.93518C5.63347 5.93518 6.00447 11.5917 11.4899 12.733Z" fill="white"/>
</svg>