<svg xmlns="http://www.w3.org/2000/svg" width="13" height="14" viewBox="0 0 13 14" fill="none">
    <path d="M6.7666 8.8916C6.70736 8.95085 6.66927 9.01432 6.65234 9.08203C6.63542 9.14974 6.63542 9.21956 6.65234 9.2915C6.66927 9.36344 6.70736 9.4248 6.7666 9.47559C6.80046 9.50944 6.84277 9.53695 6.89355 9.55811C6.94434 9.57926 6.99512 9.58984 7.0459 9.58984C7.15592 9.58984 7.25326 9.55176 7.33789 9.47559L9.7373 7.0127L7.33789 4.5498C7.25326 4.46517 7.15592 4.42285 7.0459 4.42285C6.93587 4.42285 6.84277 4.46517 6.7666 4.5498C6.73275 4.5752 6.70736 4.6027 6.69043 4.63232C6.6735 4.66195 6.66081 4.69369 6.65234 4.72754C6.64388 4.76139 6.63965 4.79525 6.63965 4.8291C6.63965 4.86296 6.64388 4.89681 6.65234 4.93066C6.66081 4.96452 6.6735 4.99837 6.69043 5.03223C6.70736 5.06608 6.73275 5.0957 6.7666 5.12109L8.22656 6.59375H0.40625C0.296224 6.59375 0.201009 6.63184 0.120605 6.70801C0.0402018 6.78418 0 6.87939 0 6.99365C0 7.10791 0.0402018 7.20524 0.120605 7.28564C0.201009 7.36605 0.296224 7.40625 0.40625 7.40625H8.25195L6.7666 8.8916ZM12.1875 0.5H4.875C4.73112 0.5 4.5957 0.53597 4.46875 0.60791C4.3418 0.67985 4.24235 0.779297 4.17041 0.90625C4.09847 1.0332 4.0625 1.16862 4.0625 1.3125V4.96875H4.8877V1.80762C4.8877 1.72298 4.90885 1.64258 4.95117 1.56641C4.99349 1.49023 5.05273 1.42887 5.12891 1.38232C5.20508 1.33577 5.28548 1.3125 5.37012 1.3125H11.6797C11.8151 1.3125 11.9315 1.36117 12.0288 1.4585C12.1261 1.55583 12.1748 1.6722 12.1748 1.80762L12.1875 12.1924C12.1875 12.3278 12.1388 12.4442 12.0415 12.5415C11.9442 12.6388 11.8278 12.6875 11.6924 12.6875H5.37012C5.2347 12.6875 5.12044 12.6388 5.02734 12.5415C4.93424 12.4442 4.8877 12.3278 4.8877 12.1924V9.01855H4.0625V12.6875C4.0625 12.916 4.1429 13.1086 4.30371 13.2651C4.46452 13.4217 4.65495 13.5 4.875 13.5H12.1875C12.416 13.5 12.6086 13.4217 12.7651 13.2651C12.9217 13.1086 13 12.916 13 12.6875V1.3125C13 0.982422 12.8519 0.741211 12.5557 0.588867C12.4372 0.529622 12.3145 0.5 12.1875 0.5Z" fill="white"/>
</svg>