<svg xmlns="http://www.w3.org/2000/svg" width="13" height="13" viewBox="0 0 13 13" fill="none">
    <path d="M7.6787 10.5238C10.444 10.5238 12.6715 8.17619 12.6715 5.2619C12.6715 2.34762 10.444 0 7.6787 0C4.91344 0 2.68587 2.34762 2.68587 5.2619C2.68587 8.17619 4.91344 10.5238 7.6787 10.5238ZM7.6787 0.809524C10.0215 0.809524 11.9034 2.79286 11.9034 5.2619C11.9034 7.73095 10.0215 9.71428 7.6787 9.71428C5.33591 9.71428 3.454 7.73095 3.454 5.2619C3.454 2.79286 5.33591 0.809524 7.6787 0.809524Z" fill="#0F2438"/>
    <path d="M3.93409 8.22168L0.189466 11.8706L0.783788 12.497L4.5582 8.87942L3.93409 8.22168Z" fill="#202F45"/>
</svg>