<svg width="148" height="70" viewBox="0 0 148 70" fill="none" xmlns="http://www.w3.org/2000/svg">
<path d="M28.2435 65.0666H23.8828V44.7153H41.9958V45.5873H28.2435V54.8902H36.82L36.2392 55.7629H28.2435V65.0666Z" fill="white"/>
<path d="M28.3972 65.0666H27.322L41.5976 44.7153H42.6727L35.5497 54.8902H43.2543V44.7153H47.6149V65.0666H43.2543V55.7638H34.9385L28.3972 65.0666Z" fill="white"/>
<path d="M47.615 44.7163H52.6156L66.9784 65.0676H61.9777L47.615 44.7163ZM68.7215 44.7163V65.0676H67.8495V44.7163H68.7215Z" fill="white"/>
<path d="M104.401 44.7163H108.762V65.0676H104.401V44.7163Z" fill="white"/>
<path d="M118.274 65.0666H113.913V45.5873H104.522V44.7153H127.577V45.5873H118.273V65.0666H118.274Z" fill="white"/>
<path d="M81.819 64.2407C78.8008 64.2227 76.5847 63.4116 75.1723 61.8066C73.7599 60.2034 73.0632 57.8976 73.0821 54.8902C73.0821 53.3873 73.2556 52.0579 73.6053 50.903C73.9532 49.748 74.4854 48.7716 75.2011 47.9745C75.9176 47.1766 76.8217 46.5711 77.9149 46.1598C79.0081 45.7469 80.3095 45.5412 81.819 45.5412H81.8198V44.7153H81.819C80.8878 44.7153 79.9179 44.7803 78.9086 44.9078C77.8993 45.0361 76.9105 45.2566 75.939 45.5684C74.9691 45.881 74.047 46.2882 73.1742 46.7924C72.3014 47.2975 71.5347 47.9251 70.8758 48.6754C70.2161 49.4272 69.6913 50.3214 69.3038 51.3562C68.9156 52.3927 68.7214 53.5797 68.7214 54.9181C68.7214 56.2565 68.9156 57.4345 69.3038 58.4521C69.6921 59.4696 70.2161 60.3539 70.8758 61.1066C71.5347 61.8585 72.3014 62.4911 73.1742 63.0035C74.047 63.5168 74.9691 63.9257 75.939 64.2276C76.9105 64.5295 77.8993 64.7458 78.9086 64.8733C79.9179 65.0017 80.8878 65.0666 81.819 65.0666H81.8198V64.2407H81.819Z" fill="white"/>
<path d="M96.487 46.2691C97.0398 46.7231 97.456 47.2932 97.7366 47.9784C98.0179 48.6645 98.1585 49.4131 98.1585 50.225C98.1585 51.0369 98.0179 51.7855 97.7366 52.4715C97.456 53.1576 97.0398 53.7326 96.487 54.1949C95.9342 54.6597 95.2416 54.8908 94.4075 54.8908H90.8324L91.414 55.7216H97.7514C98.6546 55.6328 99.4377 55.3794 100.092 54.95C100.915 54.4071 101.531 53.7244 101.938 52.9001C102.346 52.0767 102.549 51.1899 102.549 50.2398C102.549 49.2913 102.346 48.4037 101.938 47.5803C101.531 46.756 100.915 46.0733 100.092 45.5304C99.2674 44.9874 98.2449 44.7168 97.0242 44.7168H81.8191V65.0681H86.1797V45.6184L94.4075 45.5888C95.2416 45.5879 95.935 45.815 96.487 46.2691Z" fill="white"/>
<path d="M92.75 57.6299L97.9555 65.0662H102.956L97.7268 57.6299H92.75Z" fill="white"/>
<path d="M147.018 14.2347C147.018 14.2347 116.582 5.74454 92.2752 9.26859C67.9688 12.7926 72.6602 18.2712 72.6602 18.2712C72.6602 18.2712 66.3697 13.8258 73.1414 10.0723C79.9131 6.31871 106.665 -0.814114 147.018 14.2347Z" fill="white"/>
<path d="M132.1 29.2199C132.1 29.2199 77.9132 20.9576 36.7927 32.1023C-4.32778 43.247 9.14406 59.9238 9.14406 59.9238C9.14406 59.9238 -5.97629 50.8405 2.82973 39.0073C9.85069 29.5736 59.4663 11.7337 132.1 29.2199Z" fill="white"/>
<path d="M94.5801 54.8911H84.9111V55.7392H94.5801V54.8911Z" fill="white"/>
</svg>
